HIERARCHY
ROOT Hips
{
	OFFSET -3.958830 18.904000 13.208200
	CHANNELS 6 Xposition Yposition Zposition Zrotation Yrotation Xrotation 
	JOINT LHipJoint
	{
		OFFSET 0.000000 0.000000 0.000000
		CHANNELS 3 Zrotation Yrotation Xrotation
		JOINT LeftUpLeg
		{
			OFFSET 1.800000 -1.400000 0.085000
			CHANNELS 3 Zrotation Yrotation Xrotation
			JOINT LeftLeg
			{
				OFFSET 2.215000 -6.000000 0.000000
				CHANNELS 3 Zrotation Yrotation Xrotation
				JOINT LeftFoot
				{
					OFFSET 2.500000 -6.900000 0.000000
					CHANNELS 3 Zrotation Yrotation Xrotation
					JOINT LeftToeBase
					{
						OFFSET 0.200000 -0.500000 1.950000
						CHANNELS 3 Zrotation Yrotation Xrotation
						End Site
						{
							OFFSET 0.000000 0.000000 0.000000
						}
					}
				}
			}
		}
	}
	JOINT RHipJoint
	{
		OFFSET 0.000000 0.000000 0.000000
		CHANNELS 3 Zrotation Yrotation Xrotation
		JOINT RightUpLeg
		{
			OFFSET -1.800000 -1.400000 0.085000
			CHANNELS 3 Zrotation Yrotation Xrotation
			JOINT RightLeg
			{
				OFFSET -2.215000 -6.000000 0.000000
				CHANNELS 3 Zrotation Yrotation Xrotation
				JOINT RightFoot
				{
					OFFSET -2.500000 -6.900000 0.000000
					CHANNELS 3 Zrotation Yrotation Xrotation
					JOINT RightToeBase
					{
						OFFSET -0.200000 -0.500000 1.950000
						CHANNELS 3 Zrotation Yrotation Xrotation
						End Site
						{
							OFFSET 0.000000 0.000000 0.000000
						}
					}
				}
			}
		}
	}
	JOINT LowerBack
	{
		OFFSET 0.000000 0.000000 0.000000
		CHANNELS 3 Zrotation Yrotation Xrotation
		JOINT Spine
		{
			OFFSET -0.087000 1.940000 -0.288900
			CHANNELS 3 Zrotation Yrotation Xrotation
			JOINT Spine1
			{
				OFFSET 0.000000 1.950000 0.060000
				CHANNELS 3 Zrotation Yrotation Xrotation
				JOINT Neck
				{
					OFFSET 0.000000 0.000000 0.000000
					CHANNELS 3 Zrotation Yrotation Xrotation
					JOINT Neck1
					{
						OFFSET 0.000000 1.600000 0.340000
						CHANNELS 3 Zrotation Yrotation Xrotation
						JOINT Head
						{
							OFFSET 0.000000 1.667000 -0.240000
							CHANNELS 3 Zrotation Yrotation Xrotation
							End Site
							{
								OFFSET 0.000000 0.000000 0.000000
							}
						}
					}
				}
				JOINT LeftShoulder
				{
					OFFSET 0.000000 0.000000 0.000000
					CHANNELS 3 Zrotation Yrotation Xrotation
					JOINT LeftArm
					{
						OFFSET 2.700000 1.550000 -0.730000
						CHANNELS 3 Zrotation Yrotation Xrotation
						JOINT LeftForeArm
						{
							OFFSET 5.450000 0.000000 0.000000
							CHANNELS 3 Zrotation Yrotation Xrotation
							JOINT LeftHand
							{
								OFFSET 3.450000 0.000000 0.000000
								CHANNELS 3 Zrotation Yrotation Xrotation
								JOINT LeftHandIndex1
								{
									OFFSET 0.750000 0.000000 0.000000
									CHANNELS 3 Zrotation Yrotation Xrotation
									End Site
									{
										OFFSET 0.000000 0.000000 0.000000
									}
								}
							}
						}
					}
				}
				JOINT RightShoulder
				{
					OFFSET 0.000000 0.000000 0.000000
					CHANNELS 3 Zrotation Yrotation Xrotation
					JOINT RightArm
					{
						OFFSET -2.700000 1.550000 -0.730000
						CHANNELS 3 Zrotation Yrotation Xrotation
						JOINT RightForeArm
						{
							OFFSET -5.450000 0.000000 0.000000
							CHANNELS 3 Zrotation Yrotation Xrotation
							JOINT RightHand
							{
								OFFSET -3.450000 0.000000 0.000000
								CHANNELS 3 Zrotation Yrotation Xrotation
								JOINT RightHandIndex1
								{
									OFFSET -0.750000 0.000000 0.000000
									CHANNELS 3 Zrotation Yrotation Xrotation
									End Site
									{
										OFFSET 0.000000 0.000000 0.000000
									}
								}
							}
						}
					}
				}
			}
		}
	}
}
MOTION
Frames: 6
Frame Time: 0.016667
-0.486570 17.358080 -2.799670 -12.189252 -31.748135 -5.906504 -15.561442 14.797696 3.276871 20.808872 -1.212675 -0.148879 -10.056923 8.147220 13.214984 0.078885 6.125306 2.262832 0.680430 0.291970 0.918150 17.803899 -9.345086 2.802868 -0.577814 0.373527 -3.611556 7.922675 -4.914734 7.858061 -0.844910 -2.710780 3.250369 -0.036920 -0.538340 0.286500 -1.684839 -6.686268 -7.987978 -10.547327 0.534885 38.274523 5.924152 1.512376 9.059846 -2.809741 -4.883515 -15.378739 -37.673891 25.900571 54.754195 3.198100 14.784680 -38.167920 -29.015473 -18.067850 8.593931 -43.207982 -22.119991 -8.344338 122.773395 -48.569687 -95.355346 -3.533007 2.179887 1.182020 -0.608130 0.705230 -0.081770 35.312929 18.458082 10.416092 46.751857 -11.199080 -19.378581 20.856526 29.387000 1.337314 2.070129 -1.160277 0.009110 0.054090 -0.171280 -0.430510 
-0.543380 17.353960 -2.802540 -12.853564 -32.535575 -5.314446 -15.525374 14.626794 3.228596 21.631038 -1.131719 -0.179306 -10.096573 8.278104 13.394956 0.030720 6.214883 2.215772 0.658310 0.265330 0.905900 17.864512 -9.304118 2.991585 1.377334 0.353596 -2.137409 6.797774 -4.484762 5.428828 -0.865201 -2.725477 3.244246 -0.030630 -0.521550 0.278810 -1.861969 -6.356254 -8.039918 -9.131842 0.231477 37.636219 5.030122 1.753867 9.687348 -3.058622 -5.091544 -15.629493 -38.121527 26.134365 54.495781 3.071550 14.685160 -38.679610 -29.786434 -19.093832 8.818628 -41.588485 -22.379804 -9.073199 121.919315 -47.893437 -92.896442 -3.565086 2.127593 1.198430 -0.599790 0.689650 -0.103450 36.457739 19.418400 10.865532 45.758563 -10.535974 -19.186844 20.178029 30.352655 1.373894 2.032047 -1.162793 -0.022290 0.080020 -0.136040 -0.442330 
-0.599160 17.349260 -2.806910 -12.915736 -32.946903 -5.085937 -15.509418 14.512659 3.216804 22.159391 -1.128923 -0.314593 -10.480029 8.464663 13.728554 0.013610 6.320699 2.167832 0.663120 0.257440 0.916700 17.896985 -9.278398 3.081425 2.377772 0.304093 -1.366377 6.136420 -4.296264 4.180255 -0.888755 -2.755303 3.228007 -0.026840 -0.519370 0.291900 -1.960422 -6.157406 -8.081082 -8.655792 0.166535 37.147381 4.458161 1.916648 10.558560 -3.188901 -5.206220 -15.982410 -37.827121 26.013843 54.503075 2.697010 14.832140 -39.046200 -29.760736 -20.318779 9.183978 -40.520479 -22.806854 -9.804359 121.662417 -46.598213 -90.972859 -3.578966 2.131915 1.212430 -0.594070 0.689450 -0.108720 36.580591 20.605029 11.329841 45.619972 -9.653564 -19.175870 19.815621 31.248051 1.396355 2.015582 -1.175518 -0.030190 0.079510 -0.127310 -0.453910 
-0.648930 17.353090 -2.809970 -12.762628 -33.081382 -5.129767 -15.484181 14.494881 3.178298 22.266728 -1.080153 -0.428442 -10.240748 8.514944 14.218029 -0.015552 6.336613 2.160235 0.657230 0.250220 0.909260 17.921593 -9.311996 3.111053 2.770682 0.306011 -1.213483 5.898952 -4.281736 4.230082 -0.881633 -2.771493 3.228888 -0.019940 -0.507260 0.281110 -2.041782 -6.033914 -8.072031 -8.414764 0.010698 37.258396 3.982869 1.844957 11.370862 -3.254359 -5.533075 -16.303419 -38.184606 25.986541 53.393281 2.287490 14.737040 -39.376700 -29.336697 -21.373557 9.505466 -39.804929 -23.191252 -10.681388 121.291097 -45.800778 -89.665860 -3.596378 2.111751 1.212930 -0.587910 0.673570 -0.112540 36.199307 21.733204 11.708710 45.050360 -8.691063 -18.978367 20.826883 31.968449 1.639273 2.007982 -1.178362 -0.046040 0.096960 -0.115230 -0.456820 
-0.687840 17.356900 -2.813960 -12.426588 -32.553407 -5.378291 -15.441681 14.499841 3.149462 22.234715 -1.112954 -0.877205 -9.995659 8.539704 14.952946 -0.033189 6.316952 2.157701 0.656320 0.259530 0.894190 17.948013 -9.403127 3.090280 2.483945 0.347016 -1.623678 6.289724 -4.419690 5.155006 -0.867225 -2.787197 3.220104 -0.009220 -0.500580 0.276590 -2.151880 -5.887602 -8.042374 -7.992350 -0.368030 37.925210 3.331953 1.470013 12.022476 -3.223651 -5.923437 -16.510027 -38.424970 25.547159 52.055785 2.226990 14.306630 -39.451250 -28.586971 -22.253915 9.684953 -39.433394 -23.920381 -11.433457 120.838574 -45.321202 -88.712237 -3.609347 2.110846 1.196290 -0.584980 0.664090 -0.110820 35.314700 22.636499 11.968685 44.852205 -7.841619 -19.023341 22.171373 33.140031 1.965880 2.016002 -1.194954 -0.043630 0.101880 -0.110360 -0.445870 
-0.716870 17.354510 -2.820850 -12.259085 -31.819058 -5.566427 -15.375451 14.478039 3.118233 22.388451 -1.210545 -1.502934 -9.743733 8.592374 15.962416 -0.017588 6.298034 2.164180 0.677970 0.290920 0.899190 17.993149 -9.533104 3.063727 2.099092 0.401060 -2.242659 6.884993 -4.622513 6.368201 -0.865172 -2.810760 3.210465 -0.000220 -0.500230 0.281220 -2.337718 -5.633687 -8.009317 -6.810056 -1.053002 38.998320 2.167717 0.870222 12.639977 -2.969050 -6.388858 -16.585338 -38.298814 24.616019 50.346632 1.922850 13.722940 -39.480480 -27.245671 -23.026388 9.713431 -39.043236 -24.970750 -12.123140 120.067834 -44.845553 -87.366581 -3.606390 2.134107 1.163970 -0.585080 0.665450 -0.091470 33.361595 23.381535 12.082836 45.458958 -6.771175 -19.179827 24.204311 34.328391 2.391596 2.062199 -1.215726 -0.017400 0.096550 -0.133880 -0.423910 
